<?xml version="1.0" encoding="utf-8"?>
<!-- Generator: Adobe Illustrator 16.0.0, SVG Export Plug-In . SVG Version: 6.00 Build 0)  -->
<!DOCTYPE svg PUBLIC "-//W3C//DTD SVG 1.0//EN" "http://www.w3.org/TR/2001/REC-SVG-20010904/DTD/svg10.dtd">
<svg version="1.0" id="Capa_1" xmlns="http://www.w3.org/2000/svg" xmlns:xlink="http://www.w3.org/1999/xlink" x="0px" y="0px"
	 width="500px" height="500px" viewBox="0 0 500 500" enable-background="new 0 0 500 500" xml:space="preserve">
<g>
	<g>
		<path d="M188.063,119.257l54.208,40.039c2.254,1.717,4.938,2.469,7.621,2.469s5.367-0.859,7.621-2.469l54.208-40.039
			c3.328-2.469,5.26-6.226,5.26-10.413V39.502c0-7.084-5.796-12.881-12.881-12.881H195.792c-7.084,0-12.881,5.796-12.881,12.881
			v69.343C182.911,112.924,184.843,116.788,188.063,119.257z M208.673,52.383h82.76v49.914L250,132.89l-41.327-30.485V52.383z"/>
		<path d="M446.114,81.365h-96.071c-7.085,0-12.881,5.797-12.881,12.881s5.796,12.881,12.881,12.881h96.071
			c15.564,0,28.124,12.667,28.124,28.124v284.242c0,15.564-12.667,28.124-28.124,28.124H53.886
			c-15.564,0-28.124-12.667-28.124-28.124V135.251c0-15.564,12.667-28.124,28.124-28.124h95.964c7.085,0,12.881-5.796,12.881-12.881
			s-5.796-12.881-12.881-12.881H53.886C24.152,81.365,0,105.518,0,135.251v284.242c0,29.734,24.152,53.886,53.886,53.886h392.229
			c29.733,0,53.886-24.151,53.886-53.886V135.251C500,105.518,475.848,81.365,446.114,81.365z"/>
		<path d="M425.296,195.363H281.457c-7.084,0-12.881,5.796-12.881,12.881c0,7.084,5.797,12.881,12.881,12.881h143.839
			c7.085,0,12.881-5.796,12.881-12.881C438.177,201.159,432.381,195.363,425.296,195.363z"/>
		<path d="M438.177,300.451c0-7.085-5.796-12.881-12.881-12.881H281.457c-7.084,0-12.881,5.796-12.881,12.881
			c0,7.084,5.797,12.881,12.881,12.881h143.839C432.381,313.332,438.177,307.643,438.177,300.451z"/>
		<path d="M281.457,333.512c-7.084,0-12.881,5.797-12.881,12.882s5.797,12.881,12.881,12.881h71.92
			c7.084,0,12.881-5.796,12.881-12.881s-5.797-12.882-12.881-12.882H281.457z"/>
		<path d="M425.296,241.305H281.457c-7.084,0-12.881,5.796-12.881,12.881s5.797,12.881,12.881,12.881h143.839
			c7.085,0,12.881-5.796,12.881-12.881S432.381,241.305,425.296,241.305z"/>
	</g>
</g>
<path fill="#020202" stroke="#0E031E" stroke-width="11" stroke-miterlimit="10" d="M45.631,363.246v14.644
	c0,2.694,2.187,4.882,4.881,4.882s4.881-2.188,4.881-4.882v-14.644c0-48.441,39.412-87.863,87.863-87.863
	c48.451,0,87.863,39.422,87.863,87.863v14.644c0,2.694,2.187,4.882,4.881,4.882s4.882-2.188,4.882-4.882v-14.644
	c0-44.83-30.41-82.601-71.657-94.014c19.29-9.586,32.606-29.454,32.606-52.425c0-32.304-26.271-58.575-58.575-58.575
	c-32.304,0-58.575,26.271-58.575,58.575c0,22.971,13.316,42.839,32.606,52.425C76.041,280.646,45.631,318.416,45.631,363.246z
	 M94.444,216.808c0-26.915,21.897-48.813,48.813-48.813c26.916,0,48.813,21.898,48.813,48.813c0,26.916-21.897,48.813-48.813,48.813
	C116.341,265.621,94.444,243.723,94.444,216.808z"/>
</svg>
